<?xml version="1.0" encoding="iso-8859-1"?>
<!-- Generator: Adobe Illustrator 18.0.0, SVG Export Plug-In . SVG Version: 6.00 Build 0)  -->
<!DOCTYPE svg PUBLIC "-//W3C//DTD SVG 1.1//EN" "http://www.w3.org/Graphics/SVG/1.1/DTD/svg11.dtd">
<svg version="1.1" id="Capa_1" xmlns="http://www.w3.org/2000/svg" xmlns:xlink="http://www.w3.org/1999/xlink" x="0px" y="0px"
	 viewBox="0 0 490.744 490.744" style="enable-background:new 0 0 490.744 490.744;" xml:space="preserve">
<path id="wine-opener" style="fill:#000100;" d="M439.449,0h-50.848c-12.841,0-23.247,10.416-23.247,23.257v0.015
	C334.701,11.936,292.277,4.915,245.37,4.915c-46.902,0-89.327,7.021-119.979,18.357v-0.015C125.391,10.416,114.984,0,102.143,0
	H51.295C38.459,0,28.048,10.416,28.048,23.257v87.826c0,12.841,10.411,23.257,23.247,23.257h50.848
	c12.841,0,23.248-10.416,23.248-23.257v-0.015c26.979,9.974,63.078,16.588,103.331,18.039v60.698l-24.604,26.845l-0.964,1.044
	c-5.79,6.311-5.357,16.145,0.964,21.93l32.764,30.011l-29.206,31.89l-0.353,0.373c-4.015,4.418-3.901,11.246,0.353,15.49
	l32.769,32.809l-32.337,33.087l-0.328,0.318l-0.079,0.089c-3.906,4.14-3.732,10.665,0.407,14.591l35.716,33.748l-31.85,36.432
	l-0.84,0.954l-0.313,0.408c-1.307,1.963-0.795,4.597,1.153,5.909l22.283,15.013l-11.941-17.721l40.308-35.229l0.238-0.213
	c3.379-3.201,3.528-8.523,0.338-11.882l-0.576-0.621l-32.153-34.011l33.753-33.002l0.1-0.104c4.338-4.348,4.333-11.39-0.02-15.738
	l-0.08-0.07l-32.401-32.352l34.155-31.283c5.337-4.9,5.7-13.194,0.81-18.537l-0.81-0.884l-27.441-29.961
	c0,0,21.073-19.394,21.08-19.401c3.66-3.46,5.323-7.817,5.323-12.821v-67.948c39.07-1.645,74.095-8.17,100.414-17.896v0.015
	c0,12.841,10.406,23.257,23.247,23.257h50.848c12.836,0,23.247-10.416,23.247-23.257V23.257C462.696,10.416,452.285,0,439.449,0z"/>
<g>
</g>
<g>
</g>
<g>
</g>
<g>
</g>
<g>
</g>
<g>
</g>
<g>
</g>
<g>
</g>
<g>
</g>
<g>
</g>
<g>
</g>
<g>
</g>
<g>
</g>
<g>
</g>
<g>
</g>
</svg>
